<svg width="156" height="130" viewBox="0 0 156 130" fill="none" xmlns="http://www.w3.org/2000/svg">
<g clip-path="url(#clip0_1847_3136)">
<rect x="78" y="35" width="100" height="100" rx="50" fill="white" fill-opacity="0.2"/>
<path d="M130.879 95.6665L142.029 83.456C142.564 82.9067 143.275 82.6051 144.011 82.6151C144.747 82.6251 145.451 82.9458 145.974 83.5095C146.497 84.0731 146.798 84.8354 146.812 85.6351C146.827 86.4348 146.555 87.2091 146.053 87.7943L130.088 105.282C129.826 105.57 129.515 105.799 129.172 105.955C128.828 106.112 128.46 106.194 128.087 106.195C127.715 106.197 127.345 106.118 127.001 105.964C126.656 105.81 126.343 105.584 126.079 105.298L109.968 87.9421C109.696 87.6591 109.479 87.3201 109.329 86.945C109.179 86.5699 109.099 86.1661 109.094 85.7572C109.089 85.3483 109.159 84.9425 109.3 84.5634C109.441 84.1844 109.65 83.8397 109.915 83.5494C110.18 83.2592 110.496 83.0292 110.844 82.8729C111.191 82.7166 111.564 82.6372 111.941 82.6392C112.317 82.6412 112.69 82.7246 113.036 82.8846C113.383 83.0446 113.697 83.2779 113.96 83.571L125.209 95.6898L125.088 66.1682C125.084 65.3515 125.38 64.5669 125.909 63.9872C126.439 63.4075 127.159 63.0801 127.91 63.077C128.662 63.0739 129.385 63.3954 129.919 63.9708C130.453 64.5461 130.755 65.3282 130.758 66.145L130.879 95.6665Z" fill="#067FCD"/>
<rect x="-36.5" y="-54.5" width="99" height="99" rx="49.5" stroke="white" stroke-opacity="0.3"/>
</g>
<defs>
<clipPath id="clip0_1847_3136">
<rect width="156" height="130" rx="10" fill="white"/>
</clipPath>
</defs>
</svg>
