<svg width="156" height="130" viewBox="0 0 156 130" fill="none" xmlns="http://www.w3.org/2000/svg">
<g clip-path="url(#clip0_1847_3128)">
<rect x="78" y="35" width="100" height="100" rx="50" fill="white" fill-opacity="0.2"/>
<g clip-path="url(#clip1_1847_3128)">
<path d="M109.002 73.7152C108.995 73.8807 109.022 74.0459 109.082 74.2006C109.141 74.3554 109.232 74.4963 109.349 74.6149C109.465 74.7335 109.605 74.8271 109.759 74.8901C109.914 74.953 110.079 74.984 110.246 74.9811H114.506C115.218 74.9811 115.786 74.402 115.879 73.6999C116.344 70.338 118.667 67.8884 122.808 67.8884C126.35 67.8884 129.592 69.6462 129.592 73.8741C129.592 77.1283 127.661 78.6248 124.61 80.9002C121.135 83.4062 118.383 86.3324 118.579 91.0831L118.595 92.1952C118.6 92.5314 118.739 92.8521 118.98 93.0879C119.222 93.3238 119.547 93.4559 119.886 93.4559H124.073C124.415 93.4559 124.743 93.3209 124.986 93.0806C125.228 92.8404 125.364 92.5145 125.364 92.1747V91.6366C125.364 87.957 126.773 86.8859 130.578 84.0212C133.722 81.6484 137.001 79.0143 137.001 73.4846C137.001 65.7411 130.413 62 123.2 62C116.659 62 109.493 65.0236 109.002 73.7152ZM117.041 103.249C117.041 105.981 119.235 108 122.255 108C125.4 108 127.563 105.981 127.563 103.249C127.563 100.42 125.395 98.432 122.25 98.432C119.235 98.432 117.041 100.42 117.041 103.249Z" fill="#01CCC0"/>
</g>
<rect x="-37.5" y="-41.5" width="99" height="99" rx="49.5" stroke="white" stroke-opacity="0.3"/>
</g>
<defs>
<clipPath id="clip0_1847_3128">
<rect width="156" height="130" rx="10" fill="white"/>
</clipPath>
<clipPath id="clip1_1847_3128">
<rect width="58" height="56" fill="white" transform="translate(99.001 57)"/>
</clipPath>
</defs>
</svg>
