<svg width="212" height="208" viewBox="0 0 212 208" fill="none" xmlns="http://www.w3.org/2000/svg">
<ellipse opacity="0.5" cx="106.144" cy="103.974" rx="105.848" ry="103.974" fill="#EBF5FC"/>
<mask id="mask0_1634_6918" style="mask-type:alpha" maskUnits="userSpaceOnUse" x="0" y="0" width="212" height="208">
<ellipse cx="106.144" cy="103.974" rx="105.848" ry="103.974" fill="#DADADA"/>
</mask>
<g mask="url(#mask0_1634_6918)">
<g clip-path="url(#clip0_1634_6918)">
<path d="M109.215 190.771H41.8959C35.3893 190.771 30.115 185.59 30.115 179.199V167.626H120.531L109.215 190.771Z" fill="#D3DCFB"/>
<path d="M183.284 98.1891V146.808V179.198H41.8959C35.3893 179.198 30.115 174.017 30.115 167.626V98.1891L112.59 69.2568L183.284 98.1891Z" fill="#EBF5FC"/>
<path d="M50.92 121.334H44.6613C43.1364 121.334 41.9 120.12 41.9 118.622V112.474C41.9 110.976 43.1364 109.762 44.6613 109.762H50.92C52.4449 109.762 53.6813 110.976 53.6813 112.474V118.622C53.6813 120.12 52.4449 121.334 50.92 121.334Z" fill="#3C58A0"/>
<path d="M74.4828 121.334H68.2241C66.6992 121.334 65.4628 120.12 65.4628 118.622V112.474C65.4628 110.976 66.6992 109.762 68.2241 109.762H74.4828C76.0077 109.762 77.2441 110.976 77.2441 112.474V118.622C77.2441 120.12 76.0077 121.334 74.4828 121.334Z" fill="#3C58A0"/>
<path d="M98.0453 121.334H91.7865C90.2616 121.334 89.0253 120.12 89.0253 118.622V112.474C89.0253 110.976 90.2616 109.762 91.7865 109.762H98.0453C99.5702 109.762 100.807 110.976 100.807 112.474V118.622C100.807 120.12 99.5705 121.334 98.0453 121.334Z" fill="#3C58A0"/>
<path d="M121.608 121.334H115.349C113.824 121.334 112.588 120.12 112.588 118.622V112.474C112.588 110.976 113.824 109.762 115.349 109.762H121.608C123.133 109.762 124.369 110.976 124.369 112.474V118.622C124.369 120.12 123.133 121.334 121.608 121.334Z" fill="#3C58A0"/>
<path d="M145.167 121.334H138.908C137.383 121.334 136.147 120.12 136.147 118.622V112.474C136.147 110.976 137.383 109.762 138.908 109.762H145.167C146.692 109.762 147.928 110.976 147.928 112.474V118.622C147.928 120.12 146.692 121.334 145.167 121.334Z" fill="#3C58A0"/>
<path d="M168.73 121.334H162.471C160.946 121.334 159.71 120.12 159.71 118.622V112.474C159.71 110.976 160.946 109.762 162.471 109.762H168.73C170.254 109.762 171.491 110.976 171.491 112.474V118.622C171.491 120.12 170.254 121.334 168.73 121.334Z" fill="#3C58A0"/>
<path d="M50.92 144.48H44.6613C43.1364 144.48 41.9 143.265 41.9 141.768V135.62C41.9 134.122 43.1364 132.907 44.6613 132.907H50.92C52.4449 132.907 53.6813 134.122 53.6813 135.62V141.768C53.6813 143.266 52.4449 144.48 50.92 144.48Z" fill="#3C58A0"/>
<path d="M74.4828 144.48H68.2241C66.6992 144.48 65.4628 143.265 65.4628 141.768V135.62C65.4628 134.122 66.6992 132.907 68.2241 132.907H74.4828C76.0077 132.907 77.2441 134.122 77.2441 135.62V141.768C77.2441 143.266 76.0077 144.48 74.4828 144.48Z" fill="#3C58A0"/>
<path d="M98.0453 144.48H91.7865C90.2616 144.48 89.0253 143.265 89.0253 141.768V135.62C89.0253 134.122 90.2616 132.907 91.7865 132.907H98.0453C99.5702 132.907 100.807 134.122 100.807 135.62V141.768C100.807 143.266 99.5705 144.48 98.0453 144.48Z" fill="#3C58A0"/>
<path d="M124.369 144.48V135.8C124.369 134.202 123.051 132.907 121.424 132.907H115.533C113.907 132.907 112.588 134.202 112.588 135.8V141.587C112.588 143.185 113.907 144.48 115.533 144.48H124.369Z" fill="#3C58A0"/>
<path d="M50.92 167.625H44.6613C43.1364 167.625 41.9 166.411 41.9 164.913V158.765C41.9 157.267 43.1364 156.053 44.6613 156.053H50.92C52.4449 156.053 53.6813 157.267 53.6813 158.765V164.913C53.6813 166.411 52.4449 167.625 50.92 167.625Z" fill="#3C58A0"/>
<path d="M74.4828 167.625H68.2241C66.6992 167.625 65.4628 166.411 65.4628 164.913V158.765C65.4628 157.267 66.6992 156.053 68.2241 156.053H74.4828C76.0077 156.053 77.2441 157.267 77.2441 158.765V164.913C77.2441 166.411 76.0077 167.625 74.4828 167.625Z" fill="#3C58A0"/>
<path d="M98.0453 167.625H91.7865C90.2616 167.625 89.0253 166.411 89.0253 164.913V158.765C89.0253 157.267 90.2616 156.053 91.7865 156.053H98.0453C99.5702 156.053 100.807 157.267 100.807 158.765V164.913C100.807 166.411 99.5705 167.625 98.0453 167.625Z" fill="#3C58A0"/>
<path d="M168.646 109.762H162.554C162.186 109.762 161.835 109.833 161.511 109.958C162.566 110.367 163.313 111.375 163.313 112.556V118.54C163.313 119.721 162.565 120.729 161.511 121.138C161.835 121.263 162.186 121.334 162.554 121.334H168.646C170.217 121.334 171.491 120.083 171.491 118.54V112.556C171.491 111.013 170.217 109.762 168.646 109.762Z" fill="#2A428C"/>
<path d="M145.084 109.762H138.991C138.623 109.762 138.272 109.833 137.948 109.958C139.003 110.367 139.75 111.375 139.75 112.556V118.54C139.75 119.721 139.003 120.729 137.948 121.138C138.272 121.263 138.623 121.334 138.991 121.334H145.084C146.655 121.334 147.928 120.083 147.928 118.54V112.556C147.928 111.013 146.655 109.762 145.084 109.762Z" fill="#2A428C"/>
<path d="M121.525 109.762H115.433C115.064 109.762 114.713 109.833 114.39 109.958C115.444 110.367 116.191 111.375 116.191 112.556V118.54C116.191 119.721 115.444 120.729 114.39 121.138C114.713 121.263 115.064 121.334 115.433 121.334H121.525C123.096 121.334 124.37 120.083 124.37 118.54V112.556C124.369 111.013 123.096 109.762 121.525 109.762Z" fill="#2A428C"/>
<path d="M97.962 109.762H91.87C91.5014 109.762 91.1504 109.833 90.827 109.958C91.8814 110.367 92.6287 111.375 92.6287 112.556V118.54C92.6287 119.721 91.8814 120.729 90.827 121.138C91.1504 121.263 91.5014 121.334 91.87 121.334H97.962C99.5332 121.334 100.807 120.083 100.807 118.54V112.556C100.806 111.013 99.5332 109.762 97.962 109.762Z" fill="#2A428C"/>
<path d="M74.3992 109.762H68.3072C67.9386 109.762 67.5876 109.833 67.2642 109.958C68.3186 110.367 69.0655 111.375 69.0655 112.556V118.54C69.0655 119.721 68.3183 120.729 67.2642 121.138C67.5876 121.263 67.9386 121.334 68.3072 121.334H74.3992C75.9704 121.334 77.244 120.083 77.244 118.54V112.556C77.244 111.013 75.9704 109.762 74.3992 109.762Z" fill="#2A428C"/>
<path d="M50.8368 109.762H44.7448C44.3762 109.762 44.0251 109.833 43.7017 109.958C44.7562 110.367 45.5034 111.375 45.5034 112.556V118.54C45.5034 119.721 44.7562 120.729 43.7017 121.138C44.0251 121.263 44.3762 121.334 44.7448 121.334H50.8368C52.4079 121.334 53.6816 120.083 53.6816 118.54V112.556C53.6812 111.013 52.4076 109.762 50.8368 109.762Z" fill="#2A428C"/>
<path d="M50.8368 132.907H44.7448C44.3762 132.907 44.0251 132.978 43.7017 133.104C44.7562 133.512 45.5034 134.52 45.5034 135.701V141.686C45.5034 142.867 44.7562 143.875 43.7017 144.284C44.0251 144.409 44.3762 144.48 44.7448 144.48H50.8368C52.4079 144.48 53.6816 143.229 53.6816 141.686V135.702C53.6812 134.158 52.4076 132.907 50.8368 132.907Z" fill="#2A428C"/>
<path d="M50.8368 156.053H44.7448C44.3762 156.053 44.0251 156.124 43.7017 156.249C44.7562 156.658 45.5034 157.666 45.5034 158.847V164.831C45.5034 166.013 44.7562 167.02 43.7017 167.429C44.0251 167.555 44.3762 167.626 44.7448 167.626H50.8368C52.4079 167.626 53.6816 166.375 53.6816 164.832V158.847C53.6812 157.303 52.4076 156.053 50.8368 156.053Z" fill="#2A428C"/>
<path d="M74.3992 132.907H68.3072C67.9386 132.907 67.5876 132.978 67.2642 133.104C68.3186 133.512 69.0655 134.52 69.0655 135.701V141.686C69.0655 142.867 68.3183 143.875 67.2642 144.284C67.5876 144.409 67.9386 144.48 68.3072 144.48H74.3992C75.9704 144.48 77.244 143.229 77.244 141.686V135.702C77.244 134.158 75.9704 132.907 74.3992 132.907Z" fill="#2A428C"/>
<path d="M74.3992 156.053H68.3072C67.9386 156.053 67.5876 156.124 67.2642 156.249C68.3186 156.658 69.0655 157.666 69.0655 158.847V164.831C69.0655 166.013 68.3183 167.02 67.2642 167.429C67.5876 167.555 67.9386 167.626 68.3072 167.626H74.3992C75.9704 167.626 77.244 166.375 77.244 164.832V158.847C77.244 157.303 75.9704 156.053 74.3992 156.053Z" fill="#2A428C"/>
<path d="M97.962 132.907H91.87C91.5014 132.907 91.1504 132.978 90.827 133.104C91.8814 133.512 92.6287 134.52 92.6287 135.701V141.686C92.6287 142.867 91.8814 143.875 90.827 144.284C91.1504 144.409 91.5014 144.48 91.87 144.48H97.962C99.5332 144.48 100.807 143.229 100.807 141.686V135.702C100.806 134.158 99.5332 132.907 97.962 132.907Z" fill="#2A428C"/>
<path d="M124.369 144.48V135.701C124.369 134.158 123.096 132.907 121.524 132.907H115.432C115.064 132.907 114.713 132.978 114.389 133.104C115.444 133.512 116.191 134.52 116.191 135.701V141.686C116.191 142.867 115.444 143.875 114.389 144.284C114.713 144.409 115.064 144.48 115.432 144.48H124.369V144.48Z" fill="#2A428C"/>
<path d="M97.962 156.053H91.87C91.5014 156.053 91.1504 156.124 90.827 156.249C91.8814 156.658 92.6287 157.666 92.6287 158.847V164.831C92.6287 166.013 91.8814 167.02 90.827 167.429C91.1504 167.555 91.5014 167.626 91.87 167.626H97.962C99.5332 167.626 100.807 166.375 100.807 164.832V158.847C100.806 157.303 99.5332 156.053 97.962 156.053Z" fill="#2A428C"/>
<path d="M175.1 94.8398V146.808V179.199H183.284V146.808V98.1893L175.1 94.8398Z" fill="#D3DCFB"/>
<path d="M183.284 98.1891V69.2569C183.284 62.8655 178.009 57.6846 171.503 57.6846H41.8959C35.3893 57.6846 30.115 62.8655 30.115 69.2569V98.1891H183.284Z" fill="#FF4155"/>
<path d="M67.2366 71.8766H59.5682C58.0951 71.8766 56.9016 70.7039 56.9016 69.2572C56.9016 67.8105 58.0954 66.6377 59.5682 66.6377H67.2366C68.7097 66.6377 69.9033 67.8105 69.9033 69.2572C69.9033 70.7039 68.7094 71.8766 67.2366 71.8766Z" fill="#E80054"/>
<path d="M86.0759 71.8766H78.4076C76.9345 71.8766 75.7409 70.7039 75.7409 69.2572C75.7409 67.8105 76.9348 66.6377 78.4076 66.6377H86.0759C87.5491 66.6377 88.7426 67.8105 88.7426 69.2572C88.7426 70.7039 87.5491 71.8766 86.0759 71.8766Z" fill="#E80054"/>
<path d="M134.983 71.8766H127.315C125.841 71.8766 124.648 70.7039 124.648 69.2572C124.648 67.8105 125.842 66.6377 127.315 66.6377H134.983C136.456 66.6377 137.65 67.8105 137.65 69.2572C137.65 70.7039 136.456 71.8766 134.983 71.8766Z" fill="#E80054"/>
<path d="M153.823 71.8766H146.154C144.681 71.8766 143.488 70.7039 143.488 69.2572C143.488 67.8105 144.681 66.6377 146.154 66.6377H153.823C155.296 66.6377 156.49 67.8105 156.49 69.2572C156.49 70.7039 155.296 71.8766 153.823 71.8766Z" fill="#E80054"/>
<path d="M80.1854 67.8103C80.1854 71.805 76.8888 75.0432 72.8222 75.0432C68.7556 75.0432 65.459 71.805 65.459 67.8103V53.3442C65.4586 49.3496 68.7552 46.1113 72.8219 46.1113C76.8885 46.1113 80.1851 49.3496 80.1851 53.3442V67.8103H80.1854Z" fill="#EBF5FC"/>
<path d="M147.932 67.8103C147.932 71.805 144.635 75.0432 140.569 75.0432C136.502 75.0432 133.205 71.805 133.205 67.8103V53.3442C133.205 49.3496 136.502 46.1113 140.568 46.1113C144.635 46.1113 147.932 49.3496 147.932 53.3442V67.8103H147.932Z" fill="#EBF5FC"/>
<path d="M140.569 46.1113C139.057 46.1113 137.653 46.5602 136.483 47.3278C138.459 48.625 139.762 50.8346 139.762 53.3446V67.8103C139.762 70.32 138.459 72.5299 136.483 73.8271C137.652 74.5943 139.057 75.0436 140.569 75.0436C144.635 75.0436 147.932 71.8053 147.932 67.8107V53.3442C147.932 49.3496 144.636 46.1113 140.569 46.1113V46.1113Z" fill="#D3DCFB"/>
<path d="M72.8218 46.1113C71.3101 46.1113 69.906 46.5602 68.7366 47.3278C70.7126 48.625 72.0149 50.8346 72.0149 53.3446V67.8103C72.0149 70.32 70.7126 72.5299 68.7366 73.8271C69.9056 74.5943 71.3101 75.0436 72.8218 75.0436C76.8885 75.0436 80.1851 71.8053 80.1851 67.8107V53.3442C80.1854 49.3496 76.8888 46.1113 72.8218 46.1113V46.1113Z" fill="#D3DCFB"/>
<path d="M171.503 57.6836H163.322C169.828 57.6836 175.102 62.8646 175.102 69.2559V98.1885H183.283V69.2563C183.284 62.8649 178.009 57.6836 171.503 57.6836Z" fill="#E80054"/>
<path d="M30.1146 83.9961H183.284V89.2354H30.1146V83.9961Z" fill="#E80054"/>
<path d="M150.879 219.703C175.279 219.703 195.059 200.273 195.059 176.305C195.059 152.337 175.279 132.907 150.879 132.907C126.479 132.907 106.699 152.337 106.699 176.305C106.699 200.273 126.479 219.703 150.879 219.703Z" fill="#4FABF7"/>
<path d="M150.879 208.131C168.773 208.131 183.278 193.882 183.278 176.306C183.278 158.729 168.773 144.48 150.879 144.48C132.986 144.48 118.481 158.729 118.481 176.306C118.481 193.882 132.986 208.131 150.879 208.131Z" fill="#EBF5FC"/>
<path d="M150.879 173.139C149.406 173.139 148.213 171.966 148.213 170.519V156.053C148.213 154.606 149.407 153.434 150.879 153.434C152.352 153.434 153.546 154.606 153.546 156.053V170.519C153.546 171.966 152.352 173.139 150.879 173.139Z" fill="#3C58A0"/>
<path d="M165.606 178.924H156.77C155.297 178.924 154.103 177.752 154.103 176.305C154.103 174.858 155.297 173.686 156.77 173.686H165.606C167.079 173.686 168.273 174.858 168.273 176.305C168.273 177.752 167.079 178.924 165.606 178.924Z" fill="#3C58A0"/>
<path d="M150.879 132.907C149.5 132.907 148.137 132.973 146.79 133.094C169.273 135.121 186.881 153.692 186.881 176.305C186.881 198.919 169.272 217.489 146.79 219.516C148.137 219.638 149.5 219.703 150.879 219.703C175.279 219.703 195.059 200.273 195.059 176.305C195.059 152.337 175.279 132.907 150.879 132.907Z" fill="#1886EA"/>
<path d="M150.879 144.48C149.495 144.48 148.132 144.566 146.793 144.732C162.757 146.705 175.106 160.089 175.106 176.306C175.106 192.523 162.757 205.906 146.793 207.88C148.132 208.045 149.495 208.131 150.879 208.131C168.773 208.131 183.278 193.882 183.278 176.306C183.278 158.729 168.773 144.48 150.879 144.48Z" fill="#D3DCFB"/>
<path d="M150.879 182.092C154.133 182.092 156.77 179.501 156.77 176.305C156.77 173.109 154.133 170.519 150.879 170.519C147.626 170.519 144.989 173.109 144.989 176.305C144.989 179.501 147.626 182.092 150.879 182.092Z" fill="#FFDD40"/>
</g>
</g>
<defs>
<clipPath id="clip0_1634_6918">
<rect width="176.72" height="173.592" fill="white" transform="translate(24.2269 46.1113)"/>
</clipPath>
</defs>
</svg>
