<svg width="40" height="40" viewBox="0 0 40 40" fill="none" xmlns="http://www.w3.org/2000/svg">
<rect y="-1.52588e-05" width="40" height="40" rx="20" fill="#F6BDE9" fill-opacity="0.2"/>
<path d="M16 20L16 16C16 13.7908 17.7909 12 20 12V12C22.2091 12 24 13.7908 24 16L24 20" stroke="#F6BDE9" stroke-width="2" stroke-linecap="round"/>
<path d="M11.6943 20.6678C11.8394 18.9269 11.912 18.0565 12.486 17.5282C13.0601 17 13.9336 17 15.6805 17H24.3195C26.0664 17 26.9399 17 27.514 17.5282C28.088 18.0565 28.1606 18.9269 28.3057 20.6678L28.8195 26.8339C28.904 27.8474 28.9462 28.3542 28.6491 28.6771C28.352 29 27.8435 29 26.8264 29H13.1736C12.1565 29 11.648 29 11.3509 28.6771C11.0538 28.3542 11.096 27.8474 11.1805 26.8339L11.6943 20.6678Z" stroke="#F6BDE9" stroke-width="2"/>
</svg>
