<svg width="156" height="130" viewBox="0 0 156 130" fill="none" xmlns="http://www.w3.org/2000/svg">
<g clip-path="url(#clip0_1847_3120)">
<rect x="78" y="35" width="100" height="100" rx="50" fill="white" fill-opacity="0.2"/>
<path d="M127.501 108.838C124.297 108.838 121.287 108.235 118.469 107.03C115.652 105.824 113.201 104.19 111.117 102.126C109.032 100.061 107.383 97.6332 106.168 94.8416C104.953 92.0501 104.344 89.0673 104.343 85.8933C104.343 82.7193 104.951 79.7365 106.168 76.945C107.384 74.1534 109.034 71.7251 111.117 69.6601C113.201 67.5951 115.652 65.9607 118.469 64.7569C121.287 63.5531 124.297 62.9504 127.501 62.9489C130.01 62.9489 132.384 63.3121 134.622 64.0387C136.861 64.7653 138.926 65.7787 140.817 67.0789L137.459 70.4632C135.992 69.5454 134.429 68.828 132.769 68.311C131.11 67.794 129.354 67.5362 127.501 67.5377C122.368 67.5377 117.996 69.3251 114.386 72.8999C110.777 76.4746 108.973 80.8057 108.974 85.8933C108.974 90.9793 110.778 95.3105 114.386 98.8867C117.995 102.463 122.366 104.25 127.501 104.249C132.634 104.249 137.006 102.461 140.615 98.8867C144.225 95.312 146.029 90.9808 146.028 85.8933C146.028 85.205 145.989 84.5166 145.912 83.8283C145.835 83.14 145.719 82.4708 145.564 81.8207L149.328 78.0922C149.752 79.3159 150.08 80.5778 150.312 81.878C150.543 83.1782 150.659 84.5166 150.659 85.8933C150.659 89.0673 150.051 92.0501 148.834 94.8416C147.618 97.6332 145.968 100.061 143.885 102.126C141.801 104.191 139.35 105.827 136.533 107.032C133.715 108.237 130.705 108.839 127.501 108.838ZM124.259 96.4477L114.417 86.6964L117.659 83.4841L124.259 90.0233L147.417 67.0215L150.659 70.2337L124.259 96.4477Z" fill="#5A27C8"/>
<rect x="-37.5" y="-41.5" width="99" height="99" rx="49.5" stroke="white" stroke-opacity="0.3"/>
</g>
<defs>
<clipPath id="clip0_1847_3120">
<rect width="156" height="130" rx="10" fill="white"/>
</clipPath>
</defs>
</svg>
