<svg width="40" height="40" viewBox="0 0 40 40" fill="none" xmlns="http://www.w3.org/2000/svg">
<rect width="40" height="40" rx="20" fill="#FFCB66" fill-opacity="0.2"/>
<path d="M12 16C12 15.0289 12.0021 14.4012 12.0643 13.9387C12.1226 13.505 12.2168 13.369 12.2929 13.2929C12.369 13.2168 12.505 13.1226 12.9387 13.0643C13.4012 13.0021 14.0289 13 15 13H25C25.9711 13 26.5988 13.0021 27.0613 13.0643C27.495 13.1226 27.631 13.2168 27.7071 13.2929C27.7832 13.369 27.8774 13.505 27.9357 13.9387C27.9979 14.4012 28 15.0289 28 16V24H12V16Z" stroke="#FFCB66" stroke-width="2"/>
<path d="M11.6667 24C10.7462 24 10 24.7462 10 25.6667C10 26.9553 11.0447 28 12.3333 28H27.6667C28.9553 28 30 26.9553 30 25.6667C30 24.7462 29.2538 24 28.3333 24H11.6667Z" stroke="#FFCB66" stroke-width="2"/>
</svg>
