<svg width="156" height="130" viewBox="0 0 156 130" fill="none" xmlns="http://www.w3.org/2000/svg">
<g clip-path="url(#clip0_1847_3114)">
<rect x="78" y="35" width="100" height="100" rx="50" fill="white" fill-opacity="0.2"/>
<path d="M130.766 73.1612L142.01 84.1041C142.55 84.5961 143.263 84.863 143.999 84.8482C144.735 84.8335 145.437 84.5383 145.955 84.0251C146.474 83.5118 146.768 82.8209 146.777 82.0984C146.785 81.3759 146.507 80.6786 146.001 80.154L129.9 64.4821C129.636 64.2239 129.323 64.0195 128.978 63.8805C128.634 63.7415 128.264 63.6708 127.892 63.6723C127.519 63.6738 127.151 63.7476 126.807 63.8894C126.464 64.0312 126.152 64.2382 125.891 64.4985L109.916 80.3018C109.646 80.5595 109.431 80.8674 109.284 81.2074C109.137 81.5474 109.06 81.9128 109.058 82.2822C109.057 82.6516 109.13 83.0176 109.274 83.3589C109.418 83.7002 109.63 84.01 109.897 84.2701C110.164 84.5302 110.482 84.7355 110.831 84.8739C111.18 85.0124 111.553 85.0812 111.93 85.0765C112.306 85.0717 112.678 84.9935 113.023 84.8462C113.369 84.699 113.681 84.4858 113.941 84.219L125.095 73.1844L125.205 99.8523C125.208 100.59 125.509 101.297 126.043 101.816C126.577 102.336 127.299 102.626 128.051 102.623C128.803 102.62 129.523 102.324 130.053 101.8C130.582 101.276 130.878 100.567 130.875 99.8291L130.766 73.1612Z" fill="#01CC88"/>
<rect x="-36.5" y="-49.5" width="99" height="99" rx="49.5" stroke="white" stroke-opacity="0.3"/>
</g>
<defs>
<clipPath id="clip0_1847_3114">
<rect width="156" height="130" rx="10" fill="white"/>
</clipPath>
</defs>
</svg>
